<svg xmlns="http://www.w3.org/2000/svg" xmlns:xlink="http://www.w3.org/1999/xlink" width="470" height="1019" viewBox="0 0 470 1019"><rect x="0" y="0" width="470" height="1019" rx="0" fill="#F4F1EE"/>
<text x="28" y="37" font-family="sans-serif" font-size="16" font-weight="750" fill="#211625" text-anchor="start" letter-spacing="0">11:32</text>
<text x="86" y="36" font-family="sans-serif" font-size="14" font-weight="600" fill="#211625" text-anchor="start" letter-spacing="0">✉</text>
<circle cx="112" cy="31" r="7" fill="#A74717"/>
<text x="342" y="37" font-family="sans-serif" font-size="17" font-weight="650" fill="#211625" text-anchor="middle" letter-spacing="0">ᛒ</text>
<rect x="360" y="25" width="3" height="10" rx="1" fill="#74677B"/>
<rect x="367" y="21" width="3" height="14" rx="1" fill="#74677B"/>
<rect x="374" y="18" width="3" height="17" rx="1" fill="#74677B"/>
<path d="M386 25q10-9 20 0M390 30q6-5 12 0" fill="none" opacity="1" stroke="#211625" stroke-width="2" stroke-linecap="round" stroke-linejoin="round"/>
<rect x="414" y="21" width="30" height="15" rx="4" fill="none" stroke="#211625" stroke-width="1.2"/>
<rect x="417" y="24" width="21" height="9" rx="2" fill="#41CA6B"/>
<rect x="445" y="25" width="3" height="7" rx="1" fill="#211625"/>
<text x="427" y="32" font-family="sans-serif" font-size="10" font-weight="800" fill="#07140B" text-anchor="middle" letter-spacing="0">80</text>
<rect x="177" y="1002" width="116" height="5" rx="3" fill="#211625"/>
<path d="M73 72 H432 Q451 72 451 91 V189 Q451 231 409 231 H39 Q19 231 19 211 V126 Q19 72 73 72 Z" fill="#694097"/>
<path d="M79 104 H98 Q117 104 117 123 V144 Q117 186 75 186 H59 Q39 186 39 166 V144 Q39 104 79 104 Z" fill="#A74717"/>
<g transform="translate(64 127) scale(1.2916666666666667)" fill="#FFFFFF" stroke="#FFFFFF" stroke-width="2" stroke-linecap="round" stroke-linejoin="round"><path d="M12 12a4 4 0 1 0 0-8 4 4 0 0 0 0 8ZM4 21c.7-4 3.4-6 8-6s7.3 2 8 6"/></g>
<text x="139" y="132" font-family="sans-serif" font-size="38" font-weight="900" fill="#FFFFFF" text-anchor="start" letter-spacing="0">Profile</text>
<text x="140" y="161" font-family="sans-serif" font-size="14" font-weight="500" fill="#FFFFFF" text-anchor="start" letter-spacing="0">Personalize Tonos, manage training</text>
<text x="140" y="181" font-family="sans-serif" font-size="14" font-weight="500" fill="#FFFFFF" text-anchor="start" letter-spacing="0">defaults, and keep your data healthy.</text>
<rect x="30" y="246" width="5" height="34" rx="3" fill="#694097"/>
<text x="51" y="269" font-family="sans-serif" font-size="18" font-weight="850" fill="#211625" text-anchor="start" letter-spacing="0">Account</text>
<text x="51" y="291" font-family="sans-serif" font-size="12" font-weight="450" fill="#584C60" text-anchor="start" letter-spacing="0">Your identity and app-level appearance.</text>
<path d="M58 306 H436 Q450 306 450 320 V474 Q450 510 414 510 H37 Q20 510 20 493 V344 Q20 306 58 306 Z" fill="#F0ECE9"/>
<path d="M59 319 H72 Q84 319 84 331 V346 Q84 366 64 366 H50 Q37 366 37 353 V341 Q37 319 59 319 Z" fill="#E8E2EA"/>
<g transform="translate(48 330) scale(1.0416666666666667)" fill="none" stroke="#694097" stroke-width="2" stroke-linecap="round" stroke-linejoin="round"><path d="M12 3 14.5 5l3.2-.2.8 3 2.5 2-1.4 2.9.4 3.2-3 1-1.8 2.6-3.1-1.1-3.1 1.1-1.8-2.6-3-1 .4-3.2L3 9.8l2.5-2 .8-3 3.2.2L12 3Z"/></g>
<text x="98" y="340" font-family="sans-serif" font-size="15.5" font-weight="800" fill="#211625" text-anchor="start" letter-spacing="0">User Information</text>
<text x="98" y="361" font-family="sans-serif" font-size="11.5" font-weight="450" fill="#584C60" text-anchor="start" letter-spacing="0">Name, body details, and activity profile.</text>
<path d="M420 334l7 7-7 7" fill="none" opacity="1" stroke="#74677B" stroke-width="1.8" stroke-linecap="round" stroke-linejoin="round"/>
<path d="M97 373 L424 373" fill="none" stroke="#C9B8D1" stroke-width="0.7" stroke-linecap="round" opacity="0.35"/>
<path d="M59 380 H72 Q84 380 84 392 V407 Q84 427 64 427 H50 Q37 427 37 414 V402 Q37 380 59 380 Z" fill="#E8E2EA"/>
<g transform="translate(48 391) scale(1.0416666666666667)" fill="none" stroke="#694097" stroke-width="2" stroke-linecap="round" stroke-linejoin="round"><path d="M12 3a9 9 0 1 0 0 18h1.2a2 2 0 0 0 1.2-3.6 1.4 1.4 0 0 1 .8-2.5H17a4 4 0 0 0 4-4c0-4.4-4-7.9-9-7.9ZM7.5 11h.01M10 7.5h.01M15 7.5h.01M17 11h.01"/></g>
<text x="98" y="401" font-family="sans-serif" font-size="15.5" font-weight="800" fill="#211625" text-anchor="start" letter-spacing="0">UI &amp; Appearance</text>
<text x="98" y="422" font-family="sans-serif" font-size="11.5" font-weight="450" fill="#584C60" text-anchor="start" letter-spacing="0">Theme, onboarding, and bottom tab setup.</text>
<path d="M420 395l7 7-7 7" fill="none" opacity="1" stroke="#74677B" stroke-width="1.8" stroke-linecap="round" stroke-linejoin="round"/>
<path d="M97 434 L424 434" fill="none" stroke="#C9B8D1" stroke-width="0.7" stroke-linecap="round" opacity="0.35"/>
<path d="M59 441 H72 Q84 441 84 453 V468 Q84 488 64 488 H50 Q37 488 37 475 V463 Q37 441 59 441 Z" fill="#E8E2EA"/>
<g transform="translate(48 452) scale(1.0416666666666667)" fill="none" stroke="#694097" stroke-width="2" stroke-linecap="round" stroke-linejoin="round"><path d="M9 11a3.5 3.5 0 1 0 0-7 3.5 3.5 0 0 0 0 7ZM3 20c.5-3.4 2.5-5 6-5s5.5 1.6 6 5M16 5.2a3.5 3.5 0 0 1 0 6.5M17 15c2.4.4 3.7 2 4 5"/></g>
<text x="98" y="462" font-family="sans-serif" font-size="15.5" font-weight="800" fill="#211625" text-anchor="start" letter-spacing="0">Guided Tutorials</text>
<text x="98" y="483" font-family="sans-serif" font-size="11.5" font-weight="450" fill="#584C60" text-anchor="start" letter-spacing="0">Replay walkthroughs and reset guided help.</text>
<path d="M420 456l7 7-7 7" fill="none" opacity="1" stroke="#74677B" stroke-width="1.8" stroke-linecap="round" stroke-linejoin="round"/>
<rect x="30" y="530" width="5" height="34" rx="3" fill="#694097"/>
<text x="51" y="553" font-family="sans-serif" font-size="18" font-weight="850" fill="#211625" text-anchor="start" letter-spacing="0">Training</text>
<text x="51" y="575" font-family="sans-serif" font-size="12" font-weight="450" fill="#584C60" text-anchor="start" letter-spacing="0">Exercise defaults and progress-related controls.</text>
<path d="M56 590 H437 Q450 590 450 603 V701 Q450 735 416 735 H37 Q20 735 20 718 V626 Q20 590 56 590 Z" fill="#E8E2EA"/>
<text x="88" y="625" font-family="sans-serif" font-size="16" font-weight="800" fill="#211625" text-anchor="start" letter-spacing="0">Gym &amp; Workout Settings</text>
<text x="88" y="647" font-family="sans-serif" font-size="12" font-weight="450" fill="#584C60" text-anchor="start" letter-spacing="0">Workout generation, rankings, flows,</text>
<text x="88" y="662" font-family="sans-serif" font-size="12" font-weight="450" fill="#584C60" text-anchor="start" letter-spacing="0">and equipment logic.</text>
<path d="M57 607 H70 Q82 607 82 619 V634 Q82 654 62 654 H48 Q35 654 35 641 V629 Q35 607 57 607 Z" fill="#DDD5E0"/>
<g transform="translate(46 618) scale(1.0416666666666667)" fill="none" stroke="#694097" stroke-width="2" stroke-linecap="round" stroke-linejoin="round"><path d="M3 9v6M6 6v12M8 10v4M16 10v4M18 6v12M21 9v6M8 12h8"/></g>
<path d="M421 624l7 7-7 7" fill="none" opacity="1" stroke="#74677B" stroke-width="2" stroke-linecap="round" stroke-linejoin="round"/>
<path d="M97 667 L424 667" fill="none" stroke="#C9B8D1" stroke-width="0.7" stroke-linecap="round" opacity="0.34"/>
<text x="88" y="698" font-family="sans-serif" font-size="16" font-weight="800" fill="#211625" text-anchor="start" letter-spacing="0">Progress Settings</text>
<text x="88" y="720" font-family="sans-serif" font-size="12" font-weight="450" fill="#584C60" text-anchor="start" letter-spacing="0">Measurement and trend tracking setup.</text>
<path d="M57 680 H70 Q82 680 82 692 V707 Q82 727 62 727 H48 Q35 727 35 714 V702 Q35 680 57 680 Z" fill="#DDD5E0"/>
<g transform="translate(46 691) scale(1.0416666666666667)" fill="none" stroke="#694097" stroke-width="2" stroke-linecap="round" stroke-linejoin="round"><path d="M3 18l6-6 4 4 8-9M15 7h6v6"/></g>
<path d="M421 697l7 7-7 7" fill="none" opacity="1" stroke="#74677B" stroke-width="2" stroke-linecap="round" stroke-linejoin="round"/>
<rect x="30" y="831" width="5" height="34" rx="3" fill="#2585D0"/>
<text x="51" y="854" font-family="sans-serif" font-size="18" font-weight="850" fill="#211625" text-anchor="start" letter-spacing="0">Data</text>
<rect x="0" y="891" width="470" height="99" rx="0" fill="#F1ECEB"/>
<path d="M0 891 L470 891" fill="none" stroke="#C9B8D1" stroke-width="1" stroke-linecap="round" opacity="0.36"/>
<g transform="translate(34 909) scale(1.0833333333333333)" fill="none" stroke="#74677B" stroke-width="2" stroke-linecap="round" stroke-linejoin="round"><path d="M3 9v6M6 6v12M8 10v4M16 10v4M18 6v12M21 9v6M8 12h8"/></g>
<text x="47" y="964" font-family="sans-serif" font-size="12" font-weight="500" fill="#74677B" text-anchor="middle" letter-spacing="0">Train</text>
<g transform="translate(128 909) scale(1.0833333333333333)" fill="none" stroke="#74677B" stroke-width="2" stroke-linecap="round" stroke-linejoin="round"><path d="M4 5c3-1.5 6-1 8 1v13c-2-2-5-2.4-8-1V5Zm16 0c-3-1.5-6-1-8 1v13c2-2 5-2.4 8-1V5Z"/></g>
<text x="141" y="964" font-family="sans-serif" font-size="12" font-weight="500" fill="#74677B" text-anchor="middle" letter-spacing="0">Catalog</text>
<g transform="translate(222 909) scale(1.0833333333333333)" fill="none" stroke="#74677B" stroke-width="2" stroke-linecap="round" stroke-linejoin="round"><path d="M4 8a8 8 0 1 1-1 5M4 4v5h5M12 7v5l3 2"/></g>
<text x="235" y="964" font-family="sans-serif" font-size="12" font-weight="500" fill="#74677B" text-anchor="middle" letter-spacing="0">Logbook</text>
<g transform="translate(316 909) scale(1.0833333333333333)" fill="none" stroke="#74677B" stroke-width="2" stroke-linecap="round" stroke-linejoin="round"><path d="M3 18l6-6 4 4 8-9M15 7h6v6"/></g>
<text x="329" y="964" font-family="sans-serif" font-size="12" font-weight="500" fill="#74677B" text-anchor="middle" letter-spacing="0">Progress</text>
<path d="M414 900 H445 Q458 900 458 913 V919 Q458 943 434 943 H403 Q388 943 388 928 V926 Q388 900 414 900 Z" fill="#EBD8FF"/>
<g transform="translate(410 909) scale(1.0833333333333333)" fill="#30104D" stroke="#30104D" stroke-width="2" stroke-linecap="round" stroke-linejoin="round"><path d="M12 12a4 4 0 1 0 0-8 4 4 0 0 0 0 8ZM4 21c.7-4 3.4-6 8-6s7.3 2 8 6"/></g>
<text x="423" y="964" font-family="sans-serif" font-size="12" font-weight="800" fill="#694097" text-anchor="middle" letter-spacing="0">Profile</text>
</svg>